<?xml version="1.0" encoding="UTF-8" standalone="no"?>
<!DOCTYPE svg PUBLIC "-//W3C//DTD SVG 1.1//EN"
 "http://www.w3.org/Graphics/SVG/1.1/DTD/svg11.dtd">
<!-- Generated by graphviz version 14.0.1 (20251006.0113)
 -->
<!-- Title: G Pages: 1 -->
<svg width="662pt" height="440pt"
 viewBox="0.00 0.00 662.00 440.00" xmlns="http://www.w3.org/2000/svg" xmlns:xlink="http://www.w3.org/1999/xlink">
<g id="graph0" class="graph" transform="scale(1 1) rotate(0) translate(4 436)">
<title>G</title>
<polygon fill="white" stroke="none" points="-4,4 -4,-436 657.75,-436 657.75,4 -4,4"/>
<!-- beneficiario -->
<g id="node1" class="node">
<title>beneficiario</title>
<text xml:space="preserve" text-anchor="start" x="470" y="-418.35" font-family="Bitstream-Vera Sans" font-size="7.00">beneficiario</text>
<polygon fill="none" stroke="black" points="455.25,-412 455.25,-414 519.25,-414 519.25,-412 455.25,-412"/>
<text xml:space="preserve" text-anchor="start" x="457.25" y="-403.35" font-family="Bitstream-Vera Sans" font-size="7.00">&#45; numero_carteira</text>
<text xml:space="preserve" text-anchor="start" x="457.25" y="-390.35" font-family="Bitstream-Vera Sans" font-size="7.00">&#45; atendimento_rn</text>
<text xml:space="preserve" text-anchor="start" x="457.25" y="-377.35" font-family="Bitstream-Vera Sans" font-size="7.00">&#45; nome_beneficiario</text>
<polygon fill="none" stroke="black" points="454.25,-372 454.25,-428 520.25,-428 520.25,-372 454.25,-372"/>
</g>
<!-- contratado -->
<g id="node2" class="node">
<title>contratado</title>
<text xml:space="preserve" text-anchor="start" x="471.12" y="-335.85" font-family="Bitstream-Vera Sans" font-size="7.00">contratado</text>
<polygon fill="none" stroke="black" points="434.25,-329.5 434.25,-331.5 540.25,-331.5 540.25,-329.5 434.25,-329.5"/>
<text xml:space="preserve" text-anchor="start" x="436.25" y="-320.85" font-family="Bitstream-Vera Sans" font-size="7.00">&#45; codigo_prestador_na_operadora</text>
<text xml:space="preserve" text-anchor="start" x="436.25" y="-307.85" font-family="Bitstream-Vera Sans" font-size="7.00">&#45; nome_contratado</text>
<text xml:space="preserve" text-anchor="start" x="436.25" y="-294.85" font-family="Bitstream-Vera Sans" font-size="7.00">&#45; carater_atendimento</text>
<text xml:space="preserve" text-anchor="start" x="436.25" y="-281.85" font-family="Bitstream-Vera Sans" font-size="7.00">&#45; tipo_atendimento</text>
<polygon fill="none" stroke="black" points="433.25,-276.5 433.25,-345.5 541.25,-345.5 541.25,-276.5 433.25,-276.5"/>
</g>
<!-- execucao_spsadt -->
<g id="node3" class="node">
<title>execucao_spsadt</title>
<text xml:space="preserve" text-anchor="start" x="314.5" y="-273.35" font-family="Bitstream-Vera Sans" font-size="7.00">execucao_spsadt</text>
<polygon fill="none" stroke="black" points="300.5,-267 300.5,-269 380.25,-269 380.25,-267 300.5,-267"/>
<text xml:space="preserve" text-anchor="start" x="302.5" y="-258.35" font-family="Bitstream-Vera Sans" font-size="7.00">&#45; codigo_execucao</text>
<text xml:space="preserve" text-anchor="start" x="302.5" y="-245.35" font-family="Bitstream-Vera Sans" font-size="7.00">&#45; codigo_beneficiario</text>
<text xml:space="preserve" text-anchor="start" x="302.5" y="-232.35" font-family="Bitstream-Vera Sans" font-size="7.00">&#45; codigo_contratado</text>
<text xml:space="preserve" text-anchor="start" x="302.5" y="-219.35" font-family="Bitstream-Vera Sans" font-size="7.00">&#45; codigo_solicitante</text>
<text xml:space="preserve" text-anchor="start" x="302.5" y="-206.35" font-family="Bitstream-Vera Sans" font-size="7.00">&#45; operadora_registro_ans</text>
<text xml:space="preserve" text-anchor="start" x="302.5" y="-193.35" font-family="Bitstream-Vera Sans" font-size="7.00">&#45; login</text>
<text xml:space="preserve" text-anchor="start" x="302.5" y="-180.35" font-family="Bitstream-Vera Sans" font-size="7.00">&#45; indicacao_clinica</text>
<text xml:space="preserve" text-anchor="start" x="302.5" y="-167.35" font-family="Bitstream-Vera Sans" font-size="7.00">&#45; indicacao_acidente</text>
<text xml:space="preserve" text-anchor="start" x="302.5" y="-154.35" font-family="Bitstream-Vera Sans" font-size="7.00">&#45; observacao</text>
<text xml:space="preserve" text-anchor="start" x="302.5" y="-141.35" font-family="Bitstream-Vera Sans" font-size="7.00">&#45; senha</text>
<text xml:space="preserve" text-anchor="start" x="302.5" y="-128.35" font-family="Bitstream-Vera Sans" font-size="7.00">&#45; tipo_transacao</text>
<polygon fill="none" stroke="black" points="299.5,-123 299.5,-283 381.25,-283 381.25,-123 299.5,-123"/>
</g>
<!-- execucao_spsadt&#45;&gt;beneficiario -->
<g id="edge2" class="edge">
<title>execucao_spsadt&#45;&gt;beneficiario</title>
<path fill="none" stroke="black" d="M381.79,-295.91C393.88,-317.98 408.46,-340.47 425.25,-359 429.43,-363.62 434.24,-367.96 439.28,-371.97"/>
<polygon fill="black" stroke="black" points="381.81,-295.94 381.07,-285 379.3,-291.23 377.26,-287.41 377.26,-287.41 377.26,-287.41 379.3,-291.23 373.13,-289.24 381.81,-295.94"/>
<ellipse fill="none" stroke="black" cx="442.66" cy="-374.52" rx="4" ry="4"/>
<text xml:space="preserve" text-anchor="middle" x="417.75" y="-370.58" font-family="Bitstream-Vera Sans" font-size="7.00">+ numero_carteira</text>
<text xml:space="preserve" text-anchor="middle" x="344.32" y="-289.17" font-family="Bitstream-Vera Sans" font-size="7.00">+ codigo_beneficiario</text>
</g>
<!-- execucao_spsadt&#45;&gt;contratado -->
<g id="edge5" class="edge">
<title>execucao_spsadt&#45;&gt;contratado</title>
<path fill="none" stroke="black" d="M397.56,-244.88C407.41,-252.22 417.67,-259.88 427.58,-267.26"/>
<polygon fill="black" stroke="black" points="397.5,-244.84 392.17,-235.25 393.22,-241.65 389.75,-239.06 389.75,-239.06 389.75,-239.06 393.22,-241.65 386.79,-242.47 397.5,-244.84"/>
<ellipse fill="none" stroke="black" cx="431.11" cy="-269.9" rx="4" ry="4"/>
<text xml:space="preserve" text-anchor="middle" x="487.22" y="-265.94" font-family="Bitstream-Vera Sans" font-size="7.00">+ codigo_prestador_na_operadora</text>
<text xml:space="preserve" text-anchor="middle" x="420.71" y="-232.01" font-family="Bitstream-Vera Sans" font-size="7.00">+ codigo_contratado</text>
</g>
<!-- solicitante -->
<g id="node4" class="node">
<title>solicitante</title>
<text xml:space="preserve" text-anchor="start" x="472.25" y="-240.85" font-family="Bitstream-Vera Sans" font-size="7.00">solicitante</text>
<polygon fill="none" stroke="black" points="437.62,-234.5 437.62,-236.5 536.88,-236.5 536.88,-234.5 437.62,-234.5"/>
<text xml:space="preserve" text-anchor="start" x="439.62" y="-225.85" font-family="Bitstream-Vera Sans" font-size="7.00">&#45; codigo_solicitante</text>
<text xml:space="preserve" text-anchor="start" x="439.62" y="-212.85" font-family="Bitstream-Vera Sans" font-size="7.00">&#45; profissional_solicitante</text>
<text xml:space="preserve" text-anchor="start" x="439.62" y="-199.85" font-family="Bitstream-Vera Sans" font-size="7.00">&#45; conselho_profissional</text>
<text xml:space="preserve" text-anchor="start" x="439.62" y="-186.85" font-family="Bitstream-Vera Sans" font-size="7.00">&#45; numero_conselho_profissional</text>
<text xml:space="preserve" text-anchor="start" x="439.62" y="-173.85" font-family="Bitstream-Vera Sans" font-size="7.00">&#45; uf</text>
<text xml:space="preserve" text-anchor="start" x="439.62" y="-160.85" font-family="Bitstream-Vera Sans" font-size="7.00">&#45; cbos</text>
<polygon fill="none" stroke="black" points="436.62,-155.5 436.62,-250.5 537.88,-250.5 537.88,-155.5 436.62,-155.5"/>
</g>
<!-- execucao_spsadt&#45;&gt;solicitante -->
<g id="edge4" class="edge">
<title>execucao_spsadt&#45;&gt;solicitante</title>
<path fill="none" stroke="black" d="M399.47,-203C406.22,-203 413.15,-203 420.01,-203"/>
<polygon fill="black" stroke="black" points="399.55,-203 389.55,-198.5 394.21,-203 389.88,-203 389.88,-203 389.88,-203 394.21,-203 389.55,-207.5 399.55,-203"/>
<ellipse fill="none" stroke="black" cx="424.13" cy="-203" rx="4" ry="4"/>
<text xml:space="preserve" text-anchor="middle" x="398.25" y="-205.35" font-family="Bitstream-Vera Sans" font-size="7.00">+ codigo_solicitante</text>
<text xml:space="preserve" text-anchor="middle" x="419.59" y="-196.35" font-family="Bitstream-Vera Sans" font-size="7.00">+ codigo_solicitante</text>
</g>
<!-- operadora -->
<g id="node5" class="node">
<title>operadora</title>
<text xml:space="preserve" text-anchor="start" x="471.88" y="-119.85" font-family="Bitstream-Vera Sans" font-size="7.00">operadora</text>
<polygon fill="none" stroke="black" points="464.62,-113.5 464.62,-115.5 509.88,-115.5 509.88,-113.5 464.62,-113.5"/>
<text xml:space="preserve" text-anchor="start" x="466.62" y="-104.85" font-family="Bitstream-Vera Sans" font-size="7.00">&#45; registro_ans</text>
<text xml:space="preserve" text-anchor="start" x="466.62" y="-91.85" font-family="Bitstream-Vera Sans" font-size="7.00">&#45; operadora</text>
<polygon fill="none" stroke="black" points="463.62,-86.5 463.62,-129.5 510.88,-129.5 510.88,-86.5 463.62,-86.5"/>
</g>
<!-- execucao_spsadt&#45;&gt;operadora -->
<g id="edge1" class="edge">
<title>execucao_spsadt&#45;&gt;operadora</title>
<path fill="none" stroke="black" d="M397.36,-160.87C406.55,-154.36 416.07,-147.86 425.25,-142 432.53,-137.35 440.48,-132.65 448.17,-128.3"/>
<polygon fill="black" stroke="black" points="397.43,-160.81 386.68,-162.97 393.09,-163.92 389.57,-166.44 389.57,-166.44 389.57,-166.44 393.09,-163.92 391.92,-170.29 397.43,-160.81"/>
<ellipse fill="none" stroke="black" cx="451.8" cy="-126.26" rx="4" ry="4"/>
<text xml:space="preserve" text-anchor="middle" x="433.61" y="-117.42" font-family="Bitstream-Vera Sans" font-size="7.00">+ registro_ans</text>
<text xml:space="preserve" text-anchor="middle" x="428.4" y="-160.18" font-family="Bitstream-Vera Sans" font-size="7.00">+ operadora_registro_ans</text>
</g>
<!-- users -->
<g id="node6" class="node">
<title>users</title>
<text xml:space="preserve" text-anchor="start" x="479.38" y="-50.35" font-family="Bitstream-Vera Sans" font-size="7.00">users</text>
<polygon fill="none" stroke="black" points="460.12,-44 460.12,-46 514.38,-46 514.38,-44 460.12,-44"/>
<text xml:space="preserve" text-anchor="start" x="462.12" y="-35.35" font-family="Bitstream-Vera Sans" font-size="7.00">&#45; login</text>
<text xml:space="preserve" text-anchor="start" x="462.12" y="-22.35" font-family="Bitstream-Vera Sans" font-size="7.00">&#45; senha</text>
<text xml:space="preserve" text-anchor="start" x="462.12" y="-9.35" font-family="Bitstream-Vera Sans" font-size="7.00">&#45; tipo_usuario_id</text>
<polygon fill="none" stroke="black" points="459.12,-4 459.12,-60 515.38,-60 515.38,-4 459.12,-4"/>
</g>
<!-- execucao_spsadt&#45;&gt;users -->
<g id="edge3" class="edge">
<title>execucao_spsadt&#45;&gt;users</title>
<path fill="none" stroke="black" d="M394.12,-110.77C403.64,-97.41 414.11,-84.35 425.25,-73 430.83,-67.32 437.31,-61.96 443.93,-57.12"/>
<polygon fill="black" stroke="black" points="394.21,-110.63 384.81,-116.27 391.17,-115.01 388.7,-118.57 388.7,-118.57 388.7,-118.57 391.17,-115.01 392.2,-121.41 394.21,-110.63"/>
<ellipse fill="none" stroke="black" cx="447.44" cy="-54.66" rx="4" ry="4"/>
<text xml:space="preserve" text-anchor="middle" x="440.25" y="-45.43" font-family="Bitstream-Vera Sans" font-size="7.00">+ login</text>
<text xml:space="preserve" text-anchor="middle" x="377.44" y="-112.47" font-family="Bitstream-Vera Sans" font-size="7.00">+ login</text>
</g>
<!-- tipo_user -->
<g id="node7" class="node">
<title>tipo_user</title>
<text xml:space="preserve" text-anchor="start" x="605.62" y="-43.85" font-family="Bitstream-Vera Sans" font-size="7.00">tipo_user</text>
<polygon fill="none" stroke="black" points="594.25,-37.5 594.25,-39.5 644.75,-39.5 644.75,-37.5 594.25,-37.5"/>
<text xml:space="preserve" text-anchor="start" x="596.25" y="-28.85" font-family="Bitstream-Vera Sans" font-size="7.00">&#45; cod_tipo_user</text>
<text xml:space="preserve" text-anchor="start" x="596.25" y="-15.85" font-family="Bitstream-Vera Sans" font-size="7.00">&#45; tipo</text>
<polygon fill="none" stroke="black" points="593.25,-10.5 593.25,-53.5 645.75,-53.5 645.75,-10.5 593.25,-10.5"/>
</g>
<!-- users&#45;&gt;tipo_user -->
<g id="edge6" class="edge">
<title>users&#45;&gt;tipo_user</title>
<path fill="none" stroke="black" d="M533.46,-32C547.43,-32 562.77,-32 576.52,-32"/>
<polygon fill="black" stroke="black" points="533.49,-32 523.49,-27.5 528.15,-32 523.82,-32 523.82,-32 523.82,-32 528.15,-32 523.49,-36.5 533.49,-32"/>
<ellipse fill="none" stroke="black" cx="580.8" cy="-32" rx="4" ry="4"/>
<text xml:space="preserve" text-anchor="middle" x="560.55" y="-34.35" font-family="Bitstream-Vera Sans" font-size="7.00">+ cod_tipo_user</text>
<text xml:space="preserve" text-anchor="middle" x="549.78" y="-25.35" font-family="Bitstream-Vera Sans" font-size="7.00">+ tipo_usuario_id</text>
</g>
<!-- execucao_spsadt_procedimento -->
<g id="node8" class="node">
<title>execucao_spsadt_procedimento</title>
<text xml:space="preserve" text-anchor="start" x="147.75" y="-275.85" font-family="Bitstream-Vera Sans" font-size="7.00">execucao_spsadt_procedimento</text>
<polygon fill="none" stroke="black" points="145.75,-269.5 145.75,-271.5 246.5,-271.5 246.5,-269.5 145.75,-269.5"/>
<text xml:space="preserve" text-anchor="start" x="147.75" y="-260.85" font-family="Bitstream-Vera Sans" font-size="7.00">&#45; codigo_procedimento</text>
<text xml:space="preserve" text-anchor="start" x="147.75" y="-247.85" font-family="Bitstream-Vera Sans" font-size="7.00">&#45; codigo_execucao</text>
<text xml:space="preserve" text-anchor="start" x="147.75" y="-234.85" font-family="Bitstream-Vera Sans" font-size="7.00">&#45; descricao_procedimento</text>
<text xml:space="preserve" text-anchor="start" x="147.75" y="-221.85" font-family="Bitstream-Vera Sans" font-size="7.00">&#45; quantidade_solicitada</text>
<polygon fill="none" stroke="black" points="144.75,-216.5 144.75,-285.5 247.5,-285.5 247.5,-216.5 144.75,-216.5"/>
</g>
<!-- execucao_spsadt_procedimento&#45;&gt;execucao_spsadt -->
<g id="edge7" class="edge">
<title>execucao_spsadt_procedimento&#45;&gt;execucao_spsadt</title>
<path fill="none" stroke="black" d="M265.14,-228.05C271.34,-225.96 277.58,-223.85 283.66,-221.8"/>
<polygon fill="black" stroke="black" points="265.19,-228.03 254.27,-226.97 260.13,-229.74 256.03,-231.12 256.03,-231.12 256.03,-231.12 260.13,-229.74 257.15,-235.49 265.19,-228.03"/>
<ellipse fill="none" stroke="black" cx="287.57" cy="-220.48" rx="4" ry="4"/>
<text xml:space="preserve" text-anchor="middle" x="262.21" y="-212.39" font-family="Bitstream-Vera Sans" font-size="7.00">+ codigo_execucao</text>
<text xml:space="preserve" text-anchor="middle" x="285.02" y="-224.69" font-family="Bitstream-Vera Sans" font-size="7.00">+ codigo_execucao</text>
</g>
<!-- transacao -->
<g id="node9" class="node">
<title>transacao</title>
<text xml:space="preserve" text-anchor="start" x="181.5" y="-180.85" font-family="Bitstream-Vera Sans" font-size="7.00">transacao</text>
<polygon fill="none" stroke="black" points="152.5,-174.5 152.5,-176.5 239.75,-176.5 239.75,-174.5 152.5,-174.5"/>
<text xml:space="preserve" text-anchor="start" x="154.5" y="-165.85" font-family="Bitstream-Vera Sans" font-size="7.00">&#45; sequencia_transacao</text>
<text xml:space="preserve" text-anchor="start" x="154.5" y="-152.85" font-family="Bitstream-Vera Sans" font-size="7.00">&#45; codigo_execucao_sp_sadt</text>
<text xml:space="preserve" text-anchor="start" x="154.5" y="-139.85" font-family="Bitstream-Vera Sans" font-size="7.00">&#45; data_registro_transacao</text>
<text xml:space="preserve" text-anchor="start" x="154.5" y="-126.85" font-family="Bitstream-Vera Sans" font-size="7.00">&#45; hora_registro_transacao</text>
<polygon fill="none" stroke="black" points="151.5,-121.5 151.5,-190.5 240.75,-190.5 240.75,-121.5 151.5,-121.5"/>
</g>
<!-- transacao&#45;&gt;execucao_spsadt -->
<g id="edge8" class="edge">
<title>transacao&#45;&gt;execucao_spsadt</title>
<path fill="none" stroke="black" d="M258.25,-176.2C266.61,-178.96 275.15,-181.78 283.4,-184.51"/>
<polygon fill="black" stroke="black" points="258.29,-176.21 250.21,-168.8 253.23,-174.54 249.12,-173.18 249.12,-173.18 249.12,-173.18 253.23,-174.54 247.39,-177.35 258.29,-176.21"/>
<ellipse fill="none" stroke="black" cx="287.61" cy="-185.9" rx="4" ry="4"/>
<text xml:space="preserve" text-anchor="middle" x="262.26" y="-189.66" font-family="Bitstream-Vera Sans" font-size="7.00">+ codigo_execucao</text>
<text xml:space="preserve" text-anchor="middle" x="291.61" y="-166.32" font-family="Bitstream-Vera Sans" font-size="7.00">+ codigo_execucao_sp_sadt</text>
</g>
<!-- transacao_status -->
<g id="node10" class="node">
<title>transacao_status</title>
<text xml:space="preserve" text-anchor="start" x="24.88" y="-180.85" font-family="Bitstream-Vera Sans" font-size="7.00">transacao_status</text>
<polygon fill="none" stroke="black" points="9,-174.5 9,-176.5 91.75,-176.5 91.75,-174.5 9,-174.5"/>
<text xml:space="preserve" text-anchor="start" x="11" y="-165.85" font-family="Bitstream-Vera Sans" font-size="7.00">&#45; codigo_transacao_status</text>
<text xml:space="preserve" text-anchor="start" x="11" y="-152.85" font-family="Bitstream-Vera Sans" font-size="7.00">&#45; codigo_transacao</text>
<text xml:space="preserve" text-anchor="start" x="11" y="-139.85" font-family="Bitstream-Vera Sans" font-size="7.00">&#45; codigo_status</text>
<text xml:space="preserve" text-anchor="start" x="11" y="-126.85" font-family="Bitstream-Vera Sans" font-size="7.00">&#45; data_hora</text>
<polygon fill="none" stroke="black" points="8,-121.5 8,-190.5 92.75,-190.5 92.75,-121.5 8,-121.5"/>
</g>
<!-- transacao_status&#45;&gt;transacao -->
<g id="edge9" class="edge">
<title>transacao_status&#45;&gt;transacao</title>
<path fill="none" stroke="black" d="M110.8,-156C118.77,-156 126.94,-156 134.92,-156"/>
<polygon fill="black" stroke="black" points="110.78,-156 100.78,-151.5 105.44,-156 101.11,-156 101.11,-156 101.11,-156 105.44,-156 100.78,-160.5 110.78,-156"/>
<ellipse fill="none" stroke="black" cx="139.33" cy="-156" rx="4" ry="4"/>
<text xml:space="preserve" text-anchor="middle" x="108.58" y="-158.35" font-family="Bitstream-Vera Sans" font-size="7.00">+ sequencia_transacao</text>
<text xml:space="preserve" text-anchor="middle" x="130.44" y="-149.35" font-family="Bitstream-Vera Sans" font-size="7.00">+ codigo_transacao</text>
</g>
</g>
</svg>
